{"title":"Kill Bill - Volume 1 (PSP, iPod, Zune)","uid":5488606,"size":427034750,"categoryP":"video","categoryS":"handheld","magnet":"?xt=urn:btih:ec012f80715eb1aac40655638149316d5a9c1173&amp;dn=Kill+Bill+-+Volume+1+%28PSP%2C+iPod%2C+Zune%29&amp;tr=udp%3A%2F%2Ftracker.openbittorrent.com%3A80&amp;tr=udp%3A%2F%2Fopen.demonii.com%3A1337&amp;tr=udp%3A%2F%2Ftracker.coppersurfer.tk%3A6969&amp;tr=udp%3A%2F%2Fexodus.desync.com%3A6969","seeders":0,"leechers":1,"uploader":"nj473","files":1,"time":1270859860,"description":"Kill Bill - Volume 1 (2003)\n\nEncoded for playback on PSP, iPod or Zune.*\n\nThis video also has soft subtitles embedded.(Basically you can turn them on and off for use during the non-english spoken scenes.)**\n\nEncoded from a HD 720p source for a sharper quality for the file size.\n\n\n*(Tested on iPod Classic 6.5G, iPod Touch 3G, Nano 3G, and Nano 5G, there is no guarantee that this will work on iPod Video 5G. I do not have access to a PSP or Zune, so I cannot test it on those devices, however, if I've got it right, theres no reason it shouldnt play on them)\n\n\n\n**Likewise I have only tested this on iPod 6.5 gen and so on... but hopefully they do work on other devices, PSP at least. I have found that providing subs are turned on for the film on iTunes, only then will the subs be available with an iPod/iPhone synced to it. I don't know why, but thats just the way it is. It's not hard to find though, just click the speech bubble on the iTunes player and select them, sync your iPod/iPhone or whatever, and turn subtitles on from the device itself)\n\n\n\nPlease leave feedback telling me which devices play this sort of encode. Fingers crossed eh...\n\n\nTech Spec:\n\nFormat                           : MPEG-4\nCodec ID                         : M4V \nFile size                        : 407 MiB\nDuration                         : 1h 50mn\nOverall bit rate                 : 514 Kbps\nMovie name                       : Kill Bill - Volume 1\nGenre                            : Thriller\nTagged date                      : UTC 2010-01-11 02:16:36\nWriting application              : ffmpeg and AtomicParsley\ntvsn                             : 0\niTunEXTC                         : mpaa|R|400|\nstik                             : 0\n\nVideo\nID                               : 1\nFormat                           : AVC\nFormat/Info                      : Advanced Video Codec\nFormat profile                   : &lt;a class=&quot;__cf_email__&quot; href=&quot;/cdn-cgi/l/email-protection&quot; data-cfemail=&quot;1a587b697f7673747f5a5628342b&quot;&gt;[email&amp;#160;protected]&lt;/a&gt;&lt;script cf-hash='f9e31' type=&quot;text/javascript&quot;&gt;\n/* &lt;![CDATA[ */!function(){try{var t=&quot;currentScript&quot;in document?document.currentScript:function(){for(var t=document.getElementsByTagName(&quot;script&quot;),e=t.length;e--;)if(t[e].getAttribute(&quot;cf-hash&quot;))return t[e]}();if(t&amp;&amp;t.previousSibling){var e,r,n,i,c=t.previousSibling,a=c.getAttribute(&quot;data-cfemail&quot;);if(a){for(e=&quot;&quot;,r=parseInt(a.substr(0,2),16),n=2;a.length-n;n+=2)i=parseInt(a.substr(n,2),16)^r,e+=String.fromCharCode(i);e=document.createTextNode(e),c.parentNode.replaceChild(e,c)}}}catch(u){}}();/* ]]&gt; */&lt;/script&gt;\nFormat settings, CABAC           : No\nFormat settings, ReFrames        : 3 frames\nCodec ID                         : avc1\nCodec ID/Info                    : Advanced Video Coding\nDuration                         : 1h 50mn\nBit rate mode                    : Variable\nBit rate                         : 384 Kbps\nWidth                            : 480 pixels\nHeight                           : 200 pixels\nDisplay aspect ratio             : 2.40:1\nFrame rate mode                  : Constant\nFrame rate                       : 23.976 fps\nResolution                       : 8 bits\nColorimetry                      : 4:2:0\nScan type                        : Progressive\nBits/(Pixel*Frame)               : 0.167\nStream size                      : 304 MiB (75%)\nLanguage                         : English\n\nAudio\nID                               : 2\nFormat                           : AAC\nFormat/Info                      : Advanced Audio Codec\nFormat version                   : Version 4\nFormat profile                   : LC\nFormat settings, SBR             : No\nCodec ID                         : 40\nDuration                         : 1h 50mn\nBit rate mode                    : Variable\nBit rate                         : 128 Kbps\nChannel(s)                       : 2 channels\nChannel positions                : Front: L R\nSampling rate                    : 48.0 KHz\nStream size                      : 101 MiB (25%)\n\nText\nID                               : 3\nFormat                           : Timed text\nMuxing mode                      : sbtl\nCodec ID                         : tx3g\nDuration                         : 1h 42mn\nBit rate mode                    : Variable\nBit rate                         : 7 bps\nStream size                      : 5.27 KiB (0%)\nLanguage                         : English\n\n\n\n\nUPLOADED IN THE STYLE OF HOLYROSES: http://thepiratebay.se/user/holyroses\nUsing HR Basic Windows PiZ Encoding: http://thepiratebay.se/torrent/5195246/HR_basic_Windows_PiZ_encoding_v1.1\n","torrent":{"xt":"urn:btih:ec012f80715eb1aac40655638149316d5a9c1173","amp;dn":"Kill+Bill+-+Volume+1+%28PSP%2C+iPod%2C+Zune%29","amp;tr":["udp%3A%2F%2Ftracker.openbittorrent.com%3A80","udp%3A%2F%2Fopen.demonii.com%3A1337","udp%3A%2F%2Ftracker.coppersurfer.tk%3A6969","udp%3A%2F%2Fexodus.desync.com%3A6969"],"infoHash":"ec012f80715eb1aac40655638149316d5a9c1173","infoHashBuffer":{"type":"Buffer","data":[236,1,47,128,113,94,177,170,196,6,85,99,129,73,49,109,90,156,17,115]},"announce":[],"urlList":[]}}